<?xml version="1.0" encoding="UTF-8"?>
<svg width="134px" height="35px" viewBox="0 0 134 35" version="1.1" xmlns="http://www.w3.org/2000/svg" xmlns:xlink="http://www.w3.org/1999/xlink">
    <!-- Generator: Sketch 59.1 (86144) - https://sketch.com -->
    <title>logo</title>
    <desc>Created with Sketch.</desc>
    <g id="Home" stroke="none" stroke-width="1" fill="none" fill-rule="evenodd">
        <g id="Desktop-HD002" transform="translate(-45.000000, -56.000000)">
            <g id="logo" transform="translate(45.000000, 56.000000)">
                <path d="M46.9479454,26 C44.4821285,26 42.5418486,25.3419755 41.1249666,24.025238 C39.7087976,22.7091889 39,20.7426867 39,18.1264196 L39,8 L43.0402888,8 L43.0402888,18.025238 C43.0402888,19.4768842 43.3896961,20.5692325 44.0892236,21.3036595 C44.7880381,22.0380865 45.7585346,22.4049558 47,22.4049558 C48.2414654,22.4049558 49.2119619,22.0504761 49.9114894,21.3415166 C50.611017,20.6332454 50.9604243,19.5698061 50.9604243,18.1518871 L50.9604243,8 L55,8 L55,17.9997706 C55,19.3502352 54.8117479,20.5231158 54.4359569,21.5191006 C54.0594527,22.5150855 53.5217934,23.3465642 52.8229789,24.0128485 C52.1234513,24.679821 51.2748908,25.1774693 50.2787236,25.5064816 C49.2818433,25.8354939 48.1715839,26 46.9479454,26" id="Fill-1" fill="#1D2E44"></path>
                <polygon id="Fill-3" fill="#1D2E44" points="59 8 62.6527669 8 71.089868 19.083 71.089868 8 75 8 75 26 71.6297753 26 62.9094326 14.5569581 62.9094326 26 59 26"></polygon>
                <path d="M87.4086228,22.528916 C88.2674722,22.528916 88.9402719,22.3702179 89.4290814,22.0528217 C89.9165179,21.7361246 90.1609227,21.2432516 90.1609227,20.5742028 L90.1609227,20.5231677 C90.1609227,19.9233309 89.9343677,19.4472366 89.4791981,19.095584 C89.0247151,18.7446304 88.2928738,18.5684546 87.2829878,18.5684546 L82.7882741,18.5684546 L82.7882741,22.528916 L87.4086228,22.528916 Z M86.3733352,15.277042 C87.2321845,15.277042 87.9139091,15.1274323 88.4191954,14.8275139 C88.9244817,14.5275954 89.1764383,14.0431118 89.1764383,13.374063 L89.1764383,13.3230279 C89.1764383,12.7231911 88.9574351,12.2645745 88.5201153,11.9471783 C88.0814225,11.6304812 87.4505012,11.4717831 86.6259783,11.4717831 L82.7882741,11.4717831 L82.7882741,15.277042 L86.3733352,15.277042 Z M79,8 L87.1923658,8 C89.2251819,8 90.7630097,8.53202315 91.8051627,9.59467122 C92.6118358,10.4175244 93.0148291,11.4375267 93.0148291,12.6539791 L93.0148291,12.7057133 C93.0148291,13.2202587 92.9516683,13.6739814 92.8267198,14.0689789 C92.7003982,14.4632773 92.5335713,14.8184254 92.3248661,15.1358216 C92.1154744,15.4532179 91.8731292,15.7314639 91.597144,15.9719579 C91.3211589,16.2117528 91.0245778,16.4172913 90.7067143,16.5885734 C91.7282713,16.9835709 92.5328848,17.5190896 93.1198682,18.1958286 C93.7054785,18.8732668 94,19.8121723 94,21.011846 L94,21.0628811 C94,21.8857343 93.8441576,22.6058182 93.5331594,23.2231328 C93.2221612,23.8397483 92.776603,24.3542937 92.196485,24.7660698 C91.6170534,25.1771469 90.9195387,25.4854546 90.1046272,25.6916922 C89.2897158,25.8972307 88.3862419,26 87.3942057,26 L79,26 L79,8 Z" id="Fill-5" fill="#1D2E44"></path>
                <polygon id="Fill-7" fill="#1D2E44" points="102.191162 16.8458461 96.2538549 8 100.821174 8 104.551047 13.8368742 108.305754 8 112.746145 8 106.808838 16.7941119 113 26 108.432681 26 104.449643 19.8289509 100.440391 26 96 26"></polygon>
                <g id="Group-11" transform="translate(117.000000, 8.000000)" fill="#1D2E44">
                    <path d="M6.98896029,14.8006913 C7.78543876,14.8006913 8.51485263,14.6695913 9.17581914,14.4073913 C9.83747703,14.1451913 10.4009579,13.7704163 10.8669531,13.2809288 C11.3336397,12.7921538 11.698001,12.2150288 11.9607282,11.5509788 C12.2227641,10.8869288 12.3555105,10.1445038 12.3555105,9.32370375 L12.3555105,9.27097875 C12.3555105,8.46799125 12.2227641,7.72485375 11.9607282,7.04370375 C11.698001,6.36184125 11.3336397,5.77687875 10.8669531,5.28739125 C10.4009579,4.79861625 9.83747703,4.41885375 9.17581914,4.14739125 C8.51485263,3.87664125 7.78543876,3.74197875 6.98896029,3.74197875 L3.96275694,3.74197875 L3.96275694,14.8006913 L6.98896029,14.8006913 Z M0.046737799,0.09896625 L6.98896029,0.09896625 C8.37864928,0.09896625 9.65495072,0.32981625 10.8164818,0.79294125 C11.9773215,1.25606625 12.9777593,1.89874125 13.8171038,2.71882875 C14.6564483,3.54105375 15.3042785,4.50577875 15.761977,5.61514125 C16.220367,6.72521625 16.4492163,7.92577875 16.4492163,9.21825375 L16.4492163,9.27097875 C16.4492163,10.5641663 16.220367,11.7697163 15.761977,12.8876288 C15.3042785,14.0055413 14.6564483,14.9759663 13.8171038,15.7960538 C12.9777593,16.6182788 11.9773215,17.2645163 10.8164818,17.7361913 C9.65495072,18.2078663 8.37864928,18.4437038 6.98896029,18.4437038 L0.046737799,18.4437038 L0.046737799,0.09896625 Z" id="Fill-9"></path>
                </g>
                <path d="M30.9971782,9.94249384 C30.9971782,9.1721807 30.4511526,8.22605824 29.7844936,7.84054864 L16.7088049,0.288514456 C16.0421458,-0.0962890813 14.9508003,-0.0962890813 14.2841412,0.289220517 L1.21127435,7.84619714 C0.544615286,8.23170673 -0.00070477563,9.17712313 6.83699152e-07,9.94814233 L0.00211706169,25.0571531 C0.00211706169,25.8281723 0.548142583,26.7735887 1.21480165,27.1590983 L14.2904903,34.7111325 C14.9571494,35.0966421 16.048495,35.0959361 16.715154,34.7111325 L29.7880209,27.1534498 C30.4546799,26.7686463 31,25.8225238 31,25.0515046 L30.9971782,9.94249384 Z" id="Fill-12" fill="#27ADB6"></path>
            </g>
        </g>
    </g>
</svg>